<?xml version="1.0" encoding="utf-8"?>
<!-- Generator: Adobe Illustrator 22.1.0, SVG Export Plug-In . SVG Version: 6.00 Build 0)  -->
<svg version="1.1" id="Calque_1" xmlns="http://www.w3.org/2000/svg" xmlns:xlink="http://www.w3.org/1999/xlink" x="0px" y="0px"
	 viewBox="0 0 53.9 56.7" style="enable-background:new 0 0 53.9 56.7;" xml:space="preserve">
<g>
	<path d="M29.5,56c-4.8,0-9-0.7-12.8-2.1C13,52.4,9.9,50.6,7.6,48c-2.3-2.5-4.1-5.4-5.4-8.8c-1.1-3.4-1.7-7-1.7-11
		c0-3.6,0.8-7.1,2.1-10.5s3.4-6.3,5.9-8.7c2.5-2.5,5.7-4.6,9.4-6.2s7.9-2.2,12.4-2.2c6.4,0,11.3,1.3,15.1,3.6
		c3.7,2.4,5.6,5.8,5.6,10c0,2.5-0.7,4.6-2,6.2c-1.3,1.6-3.6,2.2-6.7,2.2c-2.6,0-4.8-0.7-6.4-2c-1.8-1.3-2.6-2.9-2.6-5
		c0-1.8,0.3-3.4,0.9-5.2s0.9-2.9,1-3.8c-0.4-0.7-0.9-1.2-1.4-1.5c-0.6-0.3-1.5-0.5-2.7-0.5c-1.6,0-3,0.4-4.2,1.2
		c-1.3,0.8-2.4,2.1-3.6,3.9c-1.1,1.8-2,4.1-2.5,7c-0.7,2.9-1,6.4-1,10.6c0,6.4,1.4,11.2,4.3,15.1c2.9,3.8,6.3,5.8,10.4,5.8
		c3.8,0,6.8-0.9,9.1-2.5c2.2-1.8,4.3-4.2,6.1-7.4l3.8,2.7c-1.1,2.1-2.3,4.1-3.8,6c-1.5,1.9-3.3,3.3-5.4,4.7
		c-2.1,1.5-4.4,2.5-6.6,3.2C35.2,55.7,32.5,56,29.5,56z"/>
</g>
</svg>
